<svg xmlns="http://www.w3.org/2000/svg" width="23" height="23">
  <g id="cart-Icon" viewBox="0 0 23 23">
    <path d="M1.952 4.997C2.012 3.894 2.952 3 4.054 3h14.96c1.098 0 2.036.89 2.094 1.997l.787 15.006c.058 1.103-.797 1.997-1.89 1.997H2.995c-1.102 0-1.945-.89-1.883-1.997l.84-15.006z" stroke-width="2"/>
    <path d="M3.027 5s.752-3.972 1.208-3.972h14.813c.402 0 1.03 3.96 1.03 3.96"  stroke-width="2"/>
    <path d="M7.4 6.978c0 2.024 2.087 4.017 4.086 4.048 2 .03 4.023-2.024 4.023-3.924" />
  </g>
</svg>

